<svg width="60" height="60" viewBox="0 0 60 60" fill="none" xmlns="http://www.w3.org/2000/svg">
<g id="Tilda_Icons_30_system_desktop">
<path id="Vector" d="M53.5663 8.95477H6.28447C5.78831 8.95477 5.38672 9.35697 5.38672 9.85253V39.2923C5.38672 39.7879 5.78831 40.1901 6.28447 40.1901H23.182L22.3411 49.0198C22.3387 49.0467 22.3417 49.0731 22.3417 49.1H17.8823C17.3861 49.1 16.9845 49.5022 16.9845 49.9978C16.9845 50.4933 17.3861 50.8955 17.8823 50.8955H42.8614C43.3576 50.8955 43.7592 50.4933 43.7592 49.9978C43.7592 49.5022 43.3576 49.1 42.8614 49.1H37.9555C37.9555 49.0731 37.9585 49.0473 37.9561 49.0198L37.1152 40.1901H53.5663C54.0624 40.1901 54.464 39.7879 54.464 39.2923V9.85253C54.464 9.35697 54.0618 8.95477 53.5663 8.95477ZM36.1594 49.1H24.1366L24.9853 40.1901H35.3113L36.1594 49.1ZM52.6685 38.3952H7.18223V10.7509H52.6685V38.3952Z" fill="#2982E9"/>
</g>
</svg>
