<svg width="60" height="60" viewBox="0 0 60 60" fill="none" xmlns="http://www.w3.org/2000/svg">
<g id="34Vet_surgery">
<path id="Vector" d="M55.0185 49.5091L43.4854 36.8641C43.5372 36.8135 43.5932 36.7653 43.6385 36.7093C44.0196 36.2352 44.3334 35.3949 43.6688 34.0836C43.6319 34.0115 43.586 33.9448 43.5324 33.8853L27.1374 15.915C27.1356 15.9133 27.1338 15.9109 27.1315 15.9085L21.7204 9.97758C21.6948 9.94661 21.6692 9.91624 21.6394 9.88884L19.651 7.70919C18.0365 5.93807 15.2791 5.81242 13.5033 7.43048C11.7351 9.05152 11.6101 11.8077 13.224 13.5734L34.2802 36.6533C34.397 36.7813 34.5494 36.8731 34.7174 36.9165C35.4225 37.0982 36.8124 37.4215 38.3054 37.6044L39.7824 39.2212L38.9969 41.0543C38.8676 41.3556 38.9141 41.7034 39.1172 41.9601C39.2785 42.1638 43.0923 46.9727 45.6966 49.1637C47.6363 50.7943 50.926 51.0616 52.8734 51.0616C53.7589 51.0616 54.367 51.0063 54.4426 50.9991C54.7791 50.967 55.0691 50.7472 55.1906 50.431C55.3121 50.1147 55.2466 49.7586 55.0185 49.5091ZM19.2424 17.5182L21.3381 12.2084L25.4723 16.7399L23.3784 22.052L19.2424 17.5182ZM14.7092 8.74959C15.7544 7.79673 17.3796 7.86939 18.3319 8.91336L19.9976 10.7387L17.9019 16.0484L14.5454 12.3692C13.5938 11.3288 13.6682 9.70363 14.7092 8.74959ZM24.7195 23.5218L26.8134 18.2096L42.1252 34.9936C42.2848 35.3396 42.2872 35.5379 42.2461 35.5891C42.1812 35.6695 42.0674 35.7362 41.9162 35.7898C41.8489 35.8029 41.7852 35.819 41.7214 35.8476C41.1045 35.9958 40.0522 35.9946 38.7986 35.8583C38.7849 35.8571 38.7723 35.8541 38.7592 35.8535C37.7349 35.7398 36.5808 35.5373 35.4207 35.2508L24.7195 23.5218ZM46.8484 47.7975C44.8087 46.0812 41.8387 42.4836 40.8525 41.2657L41.6541 39.3963C41.7917 39.0742 41.7292 38.7008 41.4927 38.4417L40.8394 37.7271C41.1616 37.7104 41.4713 37.6776 41.7643 37.6264L52.3851 49.2715C50.5645 49.2226 48.1556 48.8969 46.8484 47.7975Z" fill="#2982E9"/>
<path id="Vector_2" d="M39.9164 51.4725H3.91283C3.41973 51.4725 3.01953 51.8721 3.01953 52.3658C3.01953 52.8595 3.41973 53.2591 3.91283 53.2591H39.9164C40.4095 53.2591 40.8097 52.8595 40.8097 52.3658C40.8097 51.8721 40.4095 51.4725 39.9164 51.4725Z" fill="#2982E9"/>
</g>
</svg>
