<svg width="60" height="60" viewBox="0 0 60 60" fill="none" xmlns="http://www.w3.org/2000/svg">
<g id="Tilda_Icons_21re_measurements">
<path id="Vector" d="M52.0894 36.7314H22.97V7.61256C22.97 7.11764 22.5694 6.71704 22.0745 6.71704H7.61183C7.11691 6.71704 6.71631 7.11764 6.71631 7.61256V37.6269V52.0902C6.71631 52.5851 7.11691 52.9857 7.61183 52.9857H52.0894C52.5838 52.9857 52.985 52.5851 52.985 52.0902V37.6269C52.985 37.132 52.5838 36.7314 52.0894 36.7314ZM21.179 8.50809V36.7314H8.50735V30.7469H12.853C13.348 30.7469 13.7485 30.3463 13.7485 29.8514C13.7485 29.3564 13.348 28.9558 12.853 28.9558H8.50735V23.1529H16.4727C16.9677 23.1529 17.3682 22.7523 17.3682 22.2573C17.3682 21.7624 16.9677 21.3618 16.4727 21.3618H8.50735V15.5588H12.853C13.348 15.5588 13.7485 15.1582 13.7485 14.6633C13.7485 14.1684 13.348 13.7678 12.853 13.7678H8.50735V8.50809H21.179ZM51.1939 51.1947H8.50735V38.5224H51.1939V51.1947Z" fill="#2982E9"/>
<path id="Vector_2" d="M44.8563 48.6472C46.9458 48.6472 48.6455 46.9469 48.6455 44.8573C48.6455 42.7678 46.9452 41.0681 44.8563 41.0681C42.7667 41.0681 41.0664 42.7678 41.0664 44.8573C41.0664 46.9469 42.7667 48.6472 44.8563 48.6472ZM44.8563 42.8591C45.9578 42.8591 46.8545 43.7552 46.8545 44.8573C46.8545 45.9594 45.9578 46.8561 44.8563 46.8561C43.7542 46.8561 42.8575 45.9594 42.8575 44.8573C42.8575 43.7558 43.7542 42.8591 44.8563 42.8591Z" fill="#2982E9"/>
</g>
</svg>
