<svg width="60" height="60" viewBox="0 0 60 60" fill="none" xmlns="http://www.w3.org/2000/svg">
<g id="Tilda_Icons_33_interior_design">
<g id="Group">
<path id="Vector" d="M12.868 42.6434H14.4534L12.4071 49.5244C12.2659 49.9996 12.5364 50.4994 13.0116 50.6406C13.0972 50.6663 13.1834 50.6777 13.2678 50.6777C13.6544 50.6777 14.0123 50.4257 14.1284 50.0361L16.3267 42.6428H22.5476L24.7459 50.0361C24.862 50.4257 25.2193 50.6777 25.6065 50.6777C25.6915 50.6777 25.7777 50.6657 25.8627 50.6406C26.3379 50.4994 26.6084 49.9996 26.4672 49.5244L24.4209 42.6434H26.0351C26.5312 42.6434 26.9328 42.2412 26.9328 41.7456C26.9328 41.2501 26.5312 40.8479 26.0351 40.8479H23.887L22.1651 35.0574C22.149 35.0029 22.1268 34.9526 22.1023 34.9042C23.9379 33.9663 25.2001 32.0607 25.2001 29.8612C25.2001 27.2265 23.3891 25.0121 20.9478 24.3831V20.1995C20.9478 19.7034 20.5462 19.3018 20.05 19.3018C19.5539 19.3018 19.1523 19.7034 19.1523 20.1995V24.2173C16.2088 24.4166 13.8729 26.868 13.8729 29.8612C13.8729 32.0002 15.0651 33.8646 16.8193 34.8281C16.7738 34.8982 16.7343 34.973 16.7092 35.0574L14.9873 40.8479H12.868C12.3718 40.8479 11.9702 41.2501 11.9702 41.7456C11.9702 42.2412 12.3718 42.6434 12.868 42.6434ZM15.6684 29.8612C15.6684 27.7287 17.4034 25.993 19.5365 25.993C21.6696 25.993 23.4046 27.7281 23.4046 29.8612C23.4046 31.9942 21.6696 33.7293 19.5365 33.7293C17.4034 33.7293 15.6684 31.9942 15.6684 29.8612ZM18.4305 35.5697C18.4454 35.52 18.4532 35.4697 18.4592 35.4195C18.8081 35.4871 19.1678 35.5254 19.5365 35.5254C19.8381 35.5254 20.132 35.4949 20.4211 35.4494C20.4271 35.4895 20.4319 35.5296 20.4438 35.5697L22.0137 40.8479H16.8612L18.4305 35.5697Z" fill="#2982E9"/>
<path id="Vector_2" d="M32.0201 50.4239H36.8081C37.3037 50.4239 37.7059 50.0217 37.7059 49.5262V25.583C37.7059 25.4663 37.6831 25.3508 37.6389 25.2431L35.2448 19.3963C35.1072 19.0593 34.7792 18.8385 34.4141 18.8385C34.049 18.8385 33.7216 19.0588 33.5834 19.3963L31.1894 25.2431C31.1409 25.361 31.1194 25.4837 31.1223 25.6034V49.5262C31.1223 50.0217 31.5245 50.4239 32.0201 50.4239ZM32.9179 48.6284V46.8329H35.9104V48.6284H32.9179ZM34.4141 22.1057L35.9104 25.7602V45.0374H32.9179V25.7602L34.4141 22.1057Z" fill="#2982E9"/>
<path id="Vector_3" d="M43.3915 9.72571H7.48125C6.98509 9.72571 6.5835 10.1273 6.5835 10.6235V56.7082C6.5835 57.2038 6.98509 57.606 7.48125 57.606H43.3915C43.887 57.606 44.2892 57.2038 44.2892 56.7082V10.6235C44.2892 10.1273 43.887 9.72571 43.3915 9.72571ZM42.4937 55.8105H8.37901V11.5212H42.4937V55.8105Z" fill="#2982E9"/>
<path id="Vector_4" d="M50.5736 2.54364H14.6634C14.1672 2.54364 13.7656 2.94524 13.7656 3.4414V8.22943C13.7656 8.72559 14.1672 9.12718 14.6634 9.12718C15.1595 9.12718 15.5611 8.72559 15.5611 8.22943V4.33915H49.6758V48.6284H46.3841C45.8885 48.6284 45.4863 49.0306 45.4863 49.5262C45.4863 50.0217 45.8885 50.4239 46.3841 50.4239H50.5736C51.0692 50.4239 51.4714 50.0217 51.4714 49.5262V3.4414C51.4714 2.94524 51.0692 2.54364 50.5736 2.54364Z" fill="#2982E9"/>
</g>
</g>
</svg>
